<?xml version="1.0" ?><!DOCTYPE svg  PUBLIC '-//W3C//DTD SVG 1.1 Tiny//EN'  'http://www.w3.org/Graphics/SVG/1.1/DTD/svg11-tiny.dtd'><svg baseProfile="tiny" id="Layer_1" overflow="scroll" version="1.1" viewBox="0 0 56.565 53.76" xml:space="preserve" xmlns="http://www.w3.org/2000/svg" xmlns:xlink="http://www.w3.org/1999/xlink"><path d="M33.841,43.262c0-3.585,1.431-6.832,3.746-9.216c-0.108-0.045-0.137-0.06-0.137-0.06  s-1.789-2.693-2.615-2.863c-0.826-0.171-0.138-1.24,0-1.539c0.137-0.299,1.193,0,1.193-3.889c0-1.282-0.184-1.368,0.504-1.368  c0.689,0,2.295-0.898,2.295-4.017c0-3.12,0-3.249-0.597-3.334c-0.092-1.197,0.642-3.12,0.642-7.479  c-0.734-4.54-2.752-6.835-4.278-7.751C34.171,1.496,33.874,0.537,33.612,0c-1.988,0.131-3.792,1.031-5.906,1.031  c-7.261,0-11.124,4.106-11.124,8.466c0,4.359,0.735,6.282,0.643,7.479c-0.598,0.085-0.598,0.214-0.598,3.334  c0,3.12,1.609,4.017,2.298,4.017s0.505,0.085,0.505,1.368c0,3.889,1.057,3.59,1.195,3.889c0.138,0.299,0.827,1.367,0,1.539  c-0.827,0.171-2.62,2.863-2.62,2.863s-0.551,0.299-8.226,2.992c-7.228,2.138-9.245,7.131-9.762,10.445  c-0.175,2.091,0.871,3.167,3.18,3.189c7.358,0,24.508,0.002,24.508,0.002s3.682,0,8.364-0.001  C34.664,48.509,33.841,45.982,33.841,43.262z" fill="#414042" fill-rule="evenodd"/><path d="M46.13,32.89c-5.754,0-10.435,4.681-10.435,10.435c0.001,5.753,4.682,10.434,10.435,10.435  c5.754-0.001,10.435-4.682,10.435-10.435C56.565,37.571,51.884,32.89,46.13,32.89z M51.333,37.488c0.018,0,0.037,0.001,0.055,0.002  l1.658,0.115c0.286,0.02,0.536,0.152,0.686,0.365c0.449,0.634,0.815,1.322,1.091,2.043c0.102,0.268,0.077,0.565-0.068,0.814  l-0.991,1.699c-0.158,0.245-0.408,0.392-0.683,0.392l-1.626-0.03c-0.28-0.005-0.543-0.161-0.686-0.409l-1.252-2.168  c-0.143-0.247-0.132-0.561,0.027-0.798l1.125-1.672C50.818,37.621,51.066,37.488,51.333,37.488z M43.064,36.162l0.853-1.536  c0.14-0.252,0.378-0.423,0.652-0.47c0.519-0.088,1.044-0.133,1.56-0.133c0.698,0,1.398,0.079,2.079,0.236  c0.286,0.065,0.522,0.252,0.649,0.511l0.8,1.636c0.126,0.257,0.103,0.563-0.061,0.797l-0.915,1.312  c-0.161,0.232-0.427,0.37-0.71,0.37l-3.298-0.001c-0.284,0-0.55-0.152-0.695-0.396l-0.904-1.527  C42.93,36.718,42.926,36.411,43.064,36.162z M37.49,39.882c0.327-0.82,0.769-1.59,1.317-2.288c0.175-0.223,0.441-0.354,0.729-0.359  l1.792-0.03h0.001c0.28,0,0.543,0.15,0.686,0.392l0.926,1.565c0.146,0.246,0.147,0.552,0.005,0.8l-1.355,2.346  c-0.14,0.243-0.402,0.394-0.696,0.394l-1.763-0.032c-0.284-0.005-0.548-0.161-0.689-0.408l-0.895-1.565  C37.407,40.45,37.385,40.146,37.49,39.882z M41.15,49.146c-0.018,0-0.037-0.001-0.055-0.002l-1.906-0.131  c-0.288-0.02-0.544-0.163-0.704-0.393c-0.425-0.612-0.775-1.273-1.04-1.966c-0.101-0.263-0.076-0.557,0.069-0.807l0.903-1.549  c0.141-0.242,0.403-0.391,0.684-0.391l1.802,0.032c0.283,0.005,0.548,0.161,0.69,0.407l1.249,2.163  c0.143,0.248,0.132,0.561-0.027,0.798l-1.001,1.487C41.665,49.014,41.417,49.146,41.15,49.146z M49.202,50.516l-0.835,1.503  c-0.14,0.252-0.379,0.424-0.656,0.471c-0.524,0.091-1.056,0.136-1.581,0.136c-0.679,0-1.361-0.075-2.027-0.224  c-0.281-0.063-0.517-0.252-0.647-0.52l-0.742-1.52c-0.121-0.248-0.098-0.549,0.061-0.786l0.976-1.451  c0.152-0.227,0.417-0.362,0.707-0.362h3.117c0.284,0,0.551,0.152,0.695,0.396l0.921,1.555C49.336,49.96,49.341,50.267,49.202,50.516  z M54.792,46.713c-0.324,0.829-0.766,1.606-1.315,2.311c-0.176,0.225-0.442,0.358-0.73,0.363l-1.843,0.03  c-0.279,0-0.542-0.149-0.685-0.39l-0.906-1.529c-0.146-0.246-0.147-0.552-0.004-0.8l1.26-2.182c0.14-0.243,0.402-0.394,0.682-0.394  l2.032,0.036c0.284,0.005,0.548,0.161,0.689,0.408l0.76,1.33C54.876,46.146,54.897,46.444,54.792,46.713z" fill="#0091D0"/></svg>